<?xml version="1.0" encoding="iso-8859-1"?>
<!-- Generator: Adobe Illustrator 19.0.0, SVG Export Plug-In . SVG Version: 6.00 Build 0)  -->
<svg version="1.1" id="Layer_1" xmlns="http://www.w3.org/2000/svg" xmlns:xlink="http://www.w3.org/1999/xlink" x="0px" y="0px"
	 viewBox="0 0 460 460" style="enable-background:new 0 0 460 460;" xml:space="preserve">
<g id="XMLID_3310_">
	<path id="XMLID_1110_" style="fill:#5F7A7E;" d="M370,370c-16.569,0-30-13.431-30-30s13.431-30,30-30s30,13.431,30,30
		S386.569,370,370,370z"/>
	<path id="XMLID_531_" style="fill:#5F7A7E;" d="M90,370c-16.569,0-30-13.431-30-30s13.431-30,30-30s30,13.431,30,30
		S106.569,370,90,370z"/>
	<path id="XMLID_1102_" style="fill:#546B6D;" d="M90,310c13.061,0,24.167,8.35,28.286,20H61.714C65.833,318.35,76.939,310,90,310z"
		/>
	<path id="XMLID_1111_" style="fill:#546B6D;" d="M370,310c13.061,0,24.167,8.35,28.286,20h-56.572
		C345.833,318.35,356.939,310,370,310z"/>
	<path id="XMLID_1699_" style="fill:#BCCFDE;" d="M430,140H230h-57.645c4.752-5.308,7.645-12.315,7.645-20l0,0
		c0-16.568-13.431-30-30-30H50c-16.569,0-30,13.432-30,30l0,0c0,7.73,2.925,14.775,7.727,20.095C12.221,141.257,0,154.197,0,170l0,0
		c0,16.568,13.431,30,30,30h10v10v5c0,8.284,6.716,15,15,15h95v60H55c-8.284,0-15,6.716-15,15s6.716,15,15,15h350
		c8.284,0,15-6.716,15-15s-6.716-15-15-15h-95v-60h95c8.284,0,15-6.716,15-15v-5v-10h10c16.569,0,30-13.432,30-30l0,0
		C460,153.432,446.569,140,430,140z M280,290H180v-60h100V290z"/>
	<path id="XMLID_1478_" style="fill:#CCDBE5;" d="M310,290h95c6.528,0,12.067,4.178,14.128,10H40.872c2.061-5.822,7.6-10,14.128-10
		h95h30h100H310z"/>
	<path id="XMLID_1558_" style="fill:#A3B5C1;" d="M420,210H40v-20h380V210z"/>
	<path id="XMLID_1605_" style="fill:#89B0D3;" d="M460,170L460,170c0,16.568-13.431,30-30,30H230H30c-16.569,0-30-13.432-30-30l0,0
		c0-15.803,12.221-28.743,27.727-29.905C22.925,134.775,20,127.73,20,120l0,0c0-16.568,13.431-30,30-30h100
		c16.568,0,30,13.432,30,30l0,0c0,7.685-2.893,14.692-7.645,20H230h200C446.569,140,460,153.432,460,170z"/>
	<path id="XMLID_1606_" style="fill:#98BDD8;" d="M460,170L460,170H230H0l0,0c0-16.568,13.431-30,30-30h200h200
		C446.569,140,460,153.432,460,170z"/>
	<path id="XMLID_1607_" style="fill:#B0D5F4;" d="M180,120L180,120H20l0,0c0-16.568,13.431-30,30-30h100
		C166.569,90,180,103.431,180,120z"/>
	<path id="XMLID_1613_" style="fill:#89B0D3;" d="M30,140h200v60H30c-16.569,0-30-13.431-30-30l0,0C0,153.431,13.431,140,30,140z"/>
	<path id="XMLID_2709_" style="fill:#98BDD8;" d="M230,140v30H0l0,0c0-16.568,13.431-30,30-30H230z"/>
	<path id="XMLID_2502_" style="fill:#B0D5F4;" d="M460,170L460,170c0,16.569-13.431,30-30,30H230v-60h200
		C446.569,140,460,153.431,460,170z"/>
	<path id="XMLID_1633_" style="fill:#C1E0F4;" d="M430,140c16.569,0,30,13.431,30,30l0,0H230v-30H430z"/>
</g>
<g>
</g>
<g>
</g>
<g>
</g>
<g>
</g>
<g>
</g>
<g>
</g>
<g>
</g>
<g>
</g>
<g>
</g>
<g>
</g>
<g>
</g>
<g>
</g>
<g>
</g>
<g>
</g>
<g>
</g>
</svg>
